:FULLY-SPECIFIED
:FORCE-ALL-JOINTS-BE-3DOF
:DEGREES
951
root 1.11236 15.2713 32.736 6.71748 -3.42848 4.58396
lfemur 7.35393 1.18495 4.41789
ltibia 2.54444e-014 -0 0
lfoot -28.5585 -13.9827 -0.00630595
ltoes -31.972 0 0
rfemur -31.9903 -16.0882 -6.95998
rtibia 49.5391 -0 0
rfoot -21.2321 4.69048 -0.00544939
rtoes -42.3051 0 0
lowerback -2.15773 -0.606261 0.867876
upperback -1.3187 -0.829647 -6.72698
thorax -0.262852 -0.453996 -7.51985
lowerneck -6.35342 0.817129 4.93169
upperneck 0.793996 0.620211 3.34783
head 1.31939 0.396666 0.231719
lclavicle 8.05078e-015 7.95139e-015 0
lhumerus -59.2726 -44.0308 112.954
lradius 55.5576 -0 0
lwrist 25.1647 0 0
lhand 39.6521 24.1467 0.00378309
lfingers 7.12502 -0 0
lthumb 62.1006 35.4715 -0.00523991
rclavicle 8.05078e-015 7.95139e-015 0
rhumerus 3.6746 -31.3958 -0.291673
rradius 29.0464 -0 0
rwrist -16.2223 0 0
rhand -37.4469 -49.7118 0.0154138
rfingers 7.12502 -0 0
rthumb -10.5051 -79.4121 0.0121331
952
root 1.09917 15.2609 32.7279 6.66104 -3.63693 4.52069
lfemur 7.52993 1.35173 4.52417
ltibia 2.54444e-014 -0 0
lfoot -28.6697 -13.7506 -0.00675639
ltoes -32.1663 0 0
rfemur -32.1925 -16.091 -6.80368
rtibia 49.7407 -0 0
rfoot -21.4281 4.80425 -0.00583865
rtoes -42.2268 0 0
lowerback -2.12037 -0.651653 0.877675
upperback -1.27836 -0.889901 -6.65879
thorax -0.249153 -0.483186 -7.45265
lowerneck -6.28417 0.910026 5.04823
upperneck 0.750283 0.741824 3.33695
head 1.29492 0.455529 0.212156
lclavicle 8.05078e-015 7.95139e-015 0
lhumerus -59.2906 -44.0881 113.1
lradius 55.5401 -0 0
lwrist 25.1819 0 0
lhand 39.452 24.0693 0.00405332
lfingers 7.12502 -0 0
lthumb 61.9335 35.5998 -0.0056142
rclavicle 8.05078e-015 7.95139e-015 0
rhumerus 3.91082 -30.6093 -0.0568583
rradius 29.0389 -0 0
rwrist -16.0443 0 0
rhand -36.9411 -49.5871 0.016515
rfingers 7.12502 -0 0
rthumb -10.017 -79.3104 0.013
953
root 1.08597 15.2504 32.7199 6.60482 -3.84545 4.45761
lfemur 7.70626 1.51818 4.63097
ltibia 2.54444e-014 -0 0
lfoot -28.7808 -13.5184 -0.00675639
ltoes -32.3607 0 0
rfemur -32.3947 -16.0934 -6.64738
rtibia 49.9422 -0 0
rfoot -21.6242 4.91803 -0.00583865
rtoes -42.1486 0 0
lowerback -2.08302 -0.697051 0.887444
upperback -1.23808 -0.950203 -6.59065
thorax -0.235488 -0.512392 -7.38546
lowerneck -6.21474 1.00278 5.16489
upperneck 0.706546 0.863428 3.32597
head 1.27043 0.514384 0.192568
lclavicle 8.05078e-015 7.95139e-015 0
lhumerus -59.3088 -44.1453 113.245
lradius 55.5225 -0 0
lwrist 25.1992 0 0
lhand 39.252 23.9919 0.00405332
lfingers 7.12502 -0 0
lthumb 61.7663 35.7282 -0.0056142
rclavicle 8.05078e-015 7.95139e-015 0
rhumerus 4.14886 -29.8236 0.179823
rradius 29.0315 -0 0
rwrist -15.8664 0 0
rhand -36.4352 -49.4624 0.016515
rfingers 7.12502 -0 0
rthumb -9.52897 -79.2086 0.013
954
root 1.07278 15.24 32.7118 6.54881 -4.05402 4.39471
lfemur 7.88291 1.6843 4.73829
ltibia 2.54444e-014 -0 0
lfoot -28.892 -13.2863 -0.00630595
ltoes -32.555 0 0
rfemur -32.5969 -16.0951 -6.49106
rtibia 50.1438 -0 0
rfoot -21.8202 5.0318 -0.00544939
rtoes -42.0703 0 0
lowerback -2.04567 -0.742456 0.897185
upperback -1.19788 -1.01055 -6.52255
thorax -0.221858 -0.541614 -7.31827
lowerneck -6.14511 1.0954 5.28167
upperneck 0.662784 0.985023 3.3149
head 1.24592 0.57323 0.172954
lclavicle 8.05078e-015 7.95139e-015 0
lhumerus -59.3272 -44.2026 113.391
lradius 55.505 -0 0
lwrist 25.2164 0 0
lhand 39.0519 23.9145 0.00378309
lfingers 7.12502 -0 0
lthumb 61.5992 35.8565 -0.00523991
rclavicle 8.05078e-015 7.95139e-015 0
rhumerus 4.38878 -29.0388 0.418412
rradius 29.024 -0 0
rwrist -15.6884 0 0
rhand -35.9294 -49.3377 0.0154138
rfingers 7.12502 -0 0
rthumb -9.04092 -79.1069 0.0121331
955
root 1.05959 15.2296 32.7037 6.49301 -4.26266 4.33201
lfemur 8.05989 1.85009 4.84613
ltibia 2.54444e-014 -0 0
lfoot -29.0032 -13.0542 -0.00540506
ltoes -32.7493 0 0
rfemur -32.7991 -16.0964 -6.33473
rtibia 50.3454 -0 0
rfoot -22.0162 5.14557 -0.00467088
rtoes -41.992 0 0
lowerback -2.00833 -0.787867 0.906895
upperback -1.15775 -1.07095 -6.45449
thorax -0.208262 -0.570852 -7.25109
lowerneck -6.0753 1.18787 5.39856
upperneck 0.618997 1.10661 3.30373
head 1.22139 0.632068 0.153315
lclavicle 8.05078e-015 7.95139e-015 0
lhumerus -59.3459 -44.2598 113.538
lradius 55.4875 -0 0
lwrist 25.2336 0 0
lhand 38.8518 23.8371 0.00324263
lfingers 7.12502 -0 0
lthumb 61.4321 35.9848 -0.00449133
rclavicle 8.05078e-015 7.95139e-015 0
rhumerus 4.63062 -28.2549 0.658953
rradius 29.0165 -0 0
rwrist -15.5105 0 0
rhand -35.4235 -49.2129 0.0132115
rfingers 7.12502 -0 0
rthumb -8.55288 -79.0051 0.0103996
956
root 1.0464 15.2192 32.6956 6.43743 -4.47135 4.26949
lfemur 8.23719 2.01554 4.9545
ltibia 2.54444e-014 -0 0
lfoot -29.1144 -12.822 -0.00405375
ltoes -32.9436 0 0
rfemur -33.0013 -16.0971 -6.1784
rtibia 50.547 -0 0
rfoot -22.2123 5.25933 -0.00350314
rtoes -41.9137 0 0
lowerback -1.97099 -0.833284 0.916576
upperback -1.11769 -1.1314 -6.38647
thorax -0.1947 -0.600106 -7.18391
lowerneck -6.00529 1.2802 5.51557
upperneck 0.575185 1.22819 3.29248
head 1.19684 0.690897 0.133651
lclavicle 8.05078e-015 7.95139e-015 0
lhumerus -59.3648 -44.317 113.684
lradius 55.47 -0 0
lwrist 25.2508 0 0
lhand 38.6517 23.7598 0.00243196
lfingers 7.12502 -0 0
lthumb 61.2649 36.1131 -0.00336848
rclavicle 8.05078e-015 7.95139e-015 0
rhumerus 4.87443 -27.4719 0.901487
rradius 29.009 -0 0
rwrist -15.3325 0 0
rhand -34.9177 -49.0883 0.0099082
rfingers 7.12502 -0 0
rthumb -8.06484 -78.9034 0.00779939
957
root 1.03321 15.2087 32.6876 6.38207 -4.68011 4.20715
lfemur 8.41483 2.18066 5.06339
ltibia 2.54444e-014 -0 0
lfoot -29.2255 -12.5899 -0.00225206
ltoes -33.1379 0 0
rfemur -33.2035 -16.0973 -6.02207
rtibia 50.7485 -0 0
rfoot -22.4083 5.37309 -0.00194617
rtoes -41.8355 0 0
lowerback -1.93367 -0.878708 0.926228
upperback -1.07771 -1.19189 -6.31849
thorax -0.181172 -0.629375 -7.11674
lowerneck -5.93509 1.37239 5.6327
upperneck 0.531346 1.34976 3.28112
head 1.17226 0.749718 0.113961
lclavicle 8.05078e-015 7.95139e-015 0
lhumerus -59.3839 -44.3741 113.83
lradius 55.4524 -0 0
lwrist 25.268 0 0
lhand 38.4517 23.6824 0.00135107
lfingers 7.12502 -0 0
lthumb 61.0978 36.2414 -0.00187136
rclavicle 8.05078e-015 7.95139e-015 0
rhumerus 5.12025 -26.6898 1.14606
rradius 29.0016 -0 0
rwrist -15.1546 0 0
rhand -34.4118 -48.9636 0.00550425
rfingers 7.12502 -0 0
rthumb -7.57681 -78.8017 0.00433277
958
root 1.02002 15.1983 32.6795 6.32691 -4.88893 364.145
lfemur 8.5928 2.34544 5.1728
ltibia 2.54444e-014 0 0
lfoot -29.3367 -12.3578 0
ltoes -33.3322 0 0
rfemur -33.4057 -16.097 -5.86574
rtibia 50.9501 0 0
rfoot -22.6043 5.48685 0
rtoes -41.7572 0 0
lowerback -1.89635 -0.924138 0.93585
upperback -1.03779 -1.25243 -6.25055
thorax -0.167679 -0.658661 -7.04958
lowerneck -5.8647 1.46443 5.74994
upperneck 0.487481 1.47132 3.26968
head 1.14767 0.808531 0.0942452
lclavicle 8.05078e-015 7.95139e-015 0
lhumerus -59.4032 -44.4312 113.977
lradius 55.4349 0 0
lwrist 25.2852 0 0
lhand 38.2516 23.605 0
lfingers 7.12502 0 0
lthumb 60.9307 36.3697 0
rclavicle 8.05078e-015 7.95139e-015 0
rhumerus 5.36812 -25.9086 1.39272
rradius 28.9941 0 0
rwrist -14.9766 0 0
rhand -33.906 -48.839 0
rfingers 7.12502 0 0
rthumb -7.08878 -798.7 0
959
root 1.02313 15.1917 32.6724 6.30717 -4.94987 4.15253
lfemur 8.61871 2.39066 5.17924
ltibia -2.70347e-014 0 0
lfoot -29.4078 -12.3453 -7.74186e-005
ltoes -33.3348 0 0
rfemur -33.4988 -16.1248 -5.87316
rtibia 51.0343 -0 0
rfoot -22.6445 5.59022 -0.000362556
rtoes -41.6888 0 0
lowerback -1.875 -0.886275 0.924061
upperback -1.03699 -1.20188 -6.23827
thorax -0.171924 -0.633103 -7.02862
lowerneck -5.90494 1.44728 5.75212
upperneck 0.448202 1.44696 3.27053
head 1.14181 0.795526 0.0935703
lclavicle 8.44835e-015 1.43125e-014 0
lhumerus -59.3082 -44.3791 114.001
lradius 55.3822 -0 0
lwrist 25.2912 0 0
lhand 38.1503 23.7564 -0.00133868
lfingers 7.12502 -0 0
lthumb 60.8445 36.6151 -0.00184588
rclavicle 8.44835e-015 1.43125e-014 0
rhumerus 5.2688 -25.9265 1.35719
rradius 28.948 -0 0
rwrist -14.7966 0 0
rhand -33.7365 -48.6369 0.00299041
rfingers 7.12502 -0 0
rthumb -6.92511 -78.5027 0.00281797
960
root 1.02623 15.1851 32.6653 6.28743 -5.01081 4.16008
lfemur 8.64462 2.43587 5.1857
ltibia -2.70347e-014 0 0
lfoot -29.479 -12.3329 -0.000139354
ltoes -33.3374 0 0
rfemur -33.5918 -16.1526 -5.88054
rtibia 51.1185 -0 0
rfoot -22.6847 5.69359 -0.000652602
rtoes -41.6204 0 0
lowerback -1.85367 -0.848407 0.912286
upperback -1.03618 -1.15134 -6.226
thorax -0.17616 -0.607544 -7.00767
lowerneck -5.94517 1.43013 5.75431
upperneck 0.408922 1.4226 3.2714
head 1.13595 0.78252 0.0928968
lclavicle 8.44835e-015 1.43125e-014 0
lhumerus -59.2133 -44.327 114.026
lradius 55.3295 -0 0
lwrist 25.2973 0 0
lhand 38.049 23.9078 -0.00240964
lfingers 7.12502 -0 0
lthumb 60.7583 36.8605 -0.00332264
rclavicle 8.44835e-015 1.43125e-014 0
rhumerus 5.16947 -25.9444 1.3217
rradius 28.9018 -0 0
rwrist -14.6166 0 0
rhand -33.5669 -48.4348 0.00538281
rfingers 7.12502 -0 0
rthumb -6.76143 -78.3055 0.00507242
961
root 1.02934 15.1785 32.6582 6.26767 -5.07174 4.16765
lfemur 8.67054 2.48108 5.19219
ltibia -2.70347e-014 0 0
lfoot -29.5501 -12.3204 -0.000185805
ltoes -33.34 0 0
rfemur -33.6849 -16.1805 -5.88787
rtibia 51.2028 -0 0
rfoot -22.7249 5.79696 -0.000870138
rtoes -41.552 0 0
lowerback -1.83234 -0.810535 0.900525
upperback -1.03536 -1.10079 -6.21372
thorax -0.180387 -0.581983 -6.98671
lowerneck -5.98541 1.41299 5.75651
upperneck 0.369643 1.39824 3.27228
head 1.13009 0.769515 0.0922246
lclavicle 8.44835e-015 1.43125e-014 0
lhumerus -59.1185 -44.275 114.05
lradius 55.2769 -0 0
lwrist 25.3033 0 0
lhand 37.9476 24.0592 -0.00321287
lfingers 7.12502 -0 0
lthumb 60.6721 37.1058 -0.00443023
rclavicle 8.44835e-015 1.43125e-014 0
rhumerus 5.07014 -25.9624 1.28623
rradius 28.8557 -0 0
rwrist -14.4365 0 0
rhand -33.3974 -48.2327 0.00717716
rfingers 7.12502 -0 0
rthumb -6.59774 -78.1082 0.00676329
